<svg width="10" height="10" viewBox="0 0 10 10" fill="none" xmlns="http://www.w3.org/2000/svg">
<path d="M5 0.950195C7.23675 0.950195 9.0498 2.76325 9.0498 5C9.0498 7.23675 7.23675 9.0498 5 9.0498C2.76325 9.0498 0.950195 7.23675 0.950195 5C0.950195 2.76325 2.76325 0.950195 5 0.950195Z" fill="white"/>
<path d="M5 0.950195C7.23675 0.950195 9.0498 2.76325 9.0498 5C9.0498 7.23675 7.23675 9.0498 5 9.0498C2.76325 9.0498 0.950195 7.23675 0.950195 5C0.950195 2.76325 2.76325 0.950195 5 0.950195Z" stroke="#E7E8E6" stroke-width="0.1"/>
<g clip-path="url(#clip0_686_8668)">
<path d="M7.7757 5.93301L7.44708 5.5235C7.53302 5.00276 7.74537 4.38596 7.44708 3.91577C7.42685 3.88544 7.07801 3.40514 7.07295 3.38998C6.75444 2.86923 5.92024 3.07652 5.58656 3.43548C5.29333 2.89451 4.45913 3.0563 4.06984 3.43548C3.49349 2.59622 2.01215 3.34447 2.23461 4.29495C2.23966 4.30001 2.52278 4.65391 2.55817 4.69436C2.48739 4.9977 2.38122 5.35666 2.38122 5.69034C2.38628 6.17569 2.73007 6.46387 2.98791 6.83799C3.39237 7.29301 4.06984 7.0655 4.31252 6.5852C4.62597 7.23234 5.59162 7.24751 5.87474 6.57004C6.19831 7.19189 7.09317 7.25256 7.52797 6.71665C7.71503 6.50937 7.81615 6.2313 7.7757 5.93301ZM7.01228 5.97852C6.92634 6.08974 6.81005 6.17569 6.6786 6.22625C6.44098 6.32736 6.12247 6.33242 5.9253 6.1403C5.58656 5.81673 5.80902 5.23532 5.90508 4.86625C5.95058 4.70447 6.11236 4.19384 5.85957 4.10789C5.72307 4.06239 5.53095 4.24945 5.46017 4.34551C5.36917 4.46685 5.31861 4.61347 5.28827 4.76008C5.22255 5.07354 5.27816 5.36677 5.29839 5.67517C5.33883 6.20097 4.7372 6.49926 4.35296 6.16558C4.12545 5.9684 4.1659 5.65495 4.22151 5.38699C4.28724 5.08365 4.41363 4.77525 4.41869 4.46179C4.42374 4.29495 4.35802 4.027 4.13556 4.11295C3.98389 4.17362 3.86761 4.36068 3.80189 4.50224C3.75133 4.61347 3.69572 4.72975 3.67044 4.85108C3.62999 5.03309 3.70077 5.2151 3.71594 5.39711C3.72605 5.53361 3.73111 5.67517 3.70583 5.81168C3.65527 6.07963 3.46821 6.30208 3.17497 6.30208C1.86048 6.29197 3.58449 3.45064 2.50762 4.11295L2.47223 4.08767C2.47223 3.20797 4.05467 3.02596 3.86761 4.09272C4.19623 3.32931 5.53095 2.90968 5.37422 4.12306C5.64218 3.46581 6.9415 2.85912 6.96678 3.95622C7.03756 4.22923 6.38031 6.17063 7.09317 5.57406L7.13868 5.58922C7.21451 5.60945 7.04262 5.94313 7.01228 5.97852Z" fill="#FE7048"/>
</g>
<defs>
<clipPath id="clip0_686_8668">
<rect width="5.57143" height="4.01426" fill="white" transform="translate(2.21423 3.07144)"/>
</clipPath>
</defs>
</svg>
